<?xml version="1.0"?>
<svg version="1.1" xmlns="http://www.w3.org/2000/svg" width="400px" height="200px" style="border: dashed 2px #aaa"><path fill="#32c73c" d="M65.70703125,137.0390625q-0.04296875-1.2890625-0.04296875-2.578125q0-4.0390625,0.4296875-8.12109375q0.515625-5.4140625,0.6875-10.65625q0.171875-6.14453125,0.515625-12.76171875q0.21484375-3.609375,0.21484375-7.1328125q0-2.87890625-0.12890625-5.71484375q0.4296875-0.98828125,1.138671875-1.33203125t1.783203125-0.34375q0.515625,0,1.095703125,0.0859375t1.009765625,0.4296875q0.6015625,0.0859375,1.482421875,0.171875t1.353515625,0.515625q0.171875,0.2578125,0.880859375,1.76171875t1.67578125,3.65234375t2.01953125,4.662109375t2.01953125,4.76953125t1.67578125,3.974609375t0.880859375,2.1484375q4.0390625-7.3046875,7.90625-15.017578125t8.46484375-14.544921875q0.4296875-0.6015625,1.482421875-0.880859375t1.740234375-0.279296875q1.84765625,0,2.685546875,0.880859375t1.095703125,2.255859375q0.171875,0.859375,0.21484375,1.84765625q0.04296875,0.515625-0.04296875,1.07421875q-0.171875,1.58984375-0.171875,3.0078125q0,10.01171875-0.6875,19.873046875t-1.24609375,19.916015625q-0.0859375,2.0625-0.0859375,4.296875t0.0859375,4.640625q0.04296875,0.859375,0.04296875,1.67578125q0,3.78125-0.64453125,7.046875q-0.6015625,0.98828125-1.9765625,1.24609375t-2.3203125,0.2578125q-2.01953125,0-3.8671875-0.9453125l-0.47265625-0.55859375l-0.171875-0.6875t-0.0859375-0.6875q0-6.23046875,0.451171875-12.546875t1.009765625-12.611328125t1.181640625-12.568359375t1.052734375-12.546875q-2.53515625,4.2109375-4.919921875,8.572265625t-4.490234375,8.873046875q-0.7734375,1.76171875-1.482421875,3.78125t-1.697265625,3.609375q-0.515625,0.7734375-1.740234375,0.9453125t-2.126953125,0.171875q-0.859375,0-1.783203125-0.30078125t-1.267578125-1.2890625q-1.58984375-4.85546875-3.39453125-9.49609375t-3.65234375-9.41015625q0,3.1796875,0.12890625,8.228515625t0.12890625,10.462890625t-0.171875,10.35546875t-0.81640625,7.8203125q-0.171875,1.07421875-1.396484375,1.33203125t-2.126953125,0.2578125q-0.6875,0-1.310546875-0.0859375t-1.224609375-0.34375z M116.7397265625,126.94140625q0-3.953125,0.923828125-7.755859375t1.568359375-7.583984375q0.171875-0.98828125,1.353515625-1.224609375t1.998046875-0.236328125q1.41796875,0,2.27734375,0.4296875q0.34375,0.171875,0.64453125,0.38671875t0.30078125,0.55859375q0,3.6953125-0.880859375,7.21875t-0.880859375,7.4765625q0,1.33203125,0.193359375,2.513671875t0.365234375,2.341796875l0.2578125,1.24609375q0,0.34375,0.04296875,0.6015625t0.12890625,0.6015625q0,0.7734375-1.095703125,1.052734375t-1.912109375,0.279296875q-1.24609375,0-2.298828125-0.494140625t-1.654296875-1.697265625l-0.6015625-1.24609375q-0.515625-0.98828125-0.515625-2.212890625t-0.21484375-2.255859375z M119.4897265625,101.07421875l0-0.81640625q0-2.01953125,1.009765625-3.609375t3.029296875-1.58984375q0.2578125,0,0.494140625,0.04296875t0.494140625,0.04296875q0.515625,0.0859375,1.353515625,0.408203125t0.837890625,1.009765625l0,0.0859375q-0.171875,0.34375-0.21484375,0.708984375t-0.21484375,0.623046875l0.0859375-0.0859375q-0.515625,1.33203125-0.837890625,2.1484375t-0.708984375,1.310546875t-0.966796875,0.708984375t-1.654296875,0.21484375q-0.171875,0-0.6015625-0.04296875t-0.923828125-0.171875t-0.837890625-0.34375t-0.34375-0.64453125z M132.881796875,82.85546875q0-0.6015625,0.837890625-0.923828125t1.095703125-0.322265625l1.58984375-0.2578125q1.58984375-0.2578125,3.22265625-0.451171875t3.1796875-0.365234375q5.45703125-0.6875,10.9140625-1.353515625t11-0.666015625q0.4296875,0,1.181640625,0.04296875t1.50390625,0.236328125t1.2890625,0.537109375t0.537109375,0.9453125q0,0.4296875-0.408203125,0.751953125t-0.966796875,0.494140625t-1.138671875,0.21484375t-0.923828125,0.04296875l-0.751953125,0t-0.751953125-0.171875q-2.27734375,0-4.490234375,0.21484375t-4.490234375,0.38671875q0.6015625,0.6875,0.64453125,1.93359375t0.0859375,2.1484375q0,15.2109375,0.21484375,30.25t0.38671875,30.37890625l0,0.0859375q-1.41796875,1.24609375-2.427734375,1.58984375t-2.041015625,0.34375q-0.98828125,0-1.998046875-0.365234375t-2.427734375-1.568359375l0-0.0859375l0.34375-33.73046875q0-3.3515625-0.0859375-7.390625t-0.0859375-8.185546875t0.12890625-8.013671875t0.6875-6.74609375q-2.53515625,0.2578125-5.37109375,0.7734375q-2.44921875,0.4296875-4.68359375,0.4296875l-0.7734375,0q-0.171875,0-1.009765625,0.04296875t-1.71875-0.04296875t-1.58984375-0.34375t-0.708984375-0.859375z M175.3637109375,126.94140625q0-3.953125,0.923828125-7.755859375t1.568359375-7.583984375q0.171875-0.98828125,1.353515625-1.224609375t1.998046875-0.236328125q1.41796875,0,2.27734375,0.4296875q0.34375,0.171875,0.64453125,0.38671875t0.30078125,0.55859375q0,3.6953125-0.880859375,7.21875t-0.880859375,7.4765625q0,1.33203125,0.193359375,2.513671875t0.365234375,2.341796875l0.2578125,1.24609375q0,0.34375,0.04296875,0.6015625t0.12890625,0.6015625q0,0.7734375-1.095703125,1.052734375t-1.912109375,0.279296875q-1.24609375,0-2.298828125-0.494140625t-1.654296875-1.697265625l-0.6015625-1.24609375q-0.515625-0.98828125-0.515625-2.212890625t-0.21484375-2.255859375z M178.1137109375,101.07421875l0-0.81640625q0-2.01953125,1.009765625-3.609375t3.029296875-1.58984375q0.2578125,0,0.494140625,0.04296875t0.494140625,0.04296875q0.515625,0.0859375,1.353515625,0.408203125t0.837890625,1.009765625l0,0.0859375q-0.171875,0.34375-0.21484375,0.708984375t-0.21484375,0.623046875l0.0859375-0.0859375q-0.515625,1.33203125-0.837890625,2.1484375t-0.708984375,1.310546875t-0.966796875,0.708984375t-1.654296875,0.21484375q-0.171875,0-0.6015625-0.04296875t-0.923828125-0.171875t-0.837890625-0.34375t-0.34375-0.64453125z M194.126875,129.734375q0-3.0078125,0.666015625-7.08984375t2.255859375-7.734375t4.189453125-6.208984375t6.552734375-2.556640625q3.6953125,0,5.54296875,2.126953125t1.84765625,5.736328125q0,2.36328125-0.880859375,5.177734375t-2.513671875,5.328125t-3.8671875,4.189453125t-4.984375,1.67578125l-1.1171875-0.0859375q0,1.16015625,0.34375,3.115234375t1.009765625,3.888671875t1.71875,3.39453125t2.556640625,1.4609375q2.19140625,0,4.2109375-1.76171875t3.82421875-3.91015625t3.3515625-3.91015625t2.8359375-1.76171875q0.6875,0,1.41796875,0.21484375t0.81640625,1.203125q0,0.6015625-0.322265625,0.98828125t-0.580078125,0.859375q-1.33203125,2.27734375-2.900390625,4.33984375t-3.544921875,3.73828125t-4.318359375,2.642578125t-5.177734375,0.966796875q-3.6953125,0-6.14453125-1.310546875t-3.953125-3.5234375t-2.169921875-5.11328125t-0.666015625-6.080078125z M201.81828125,126.46875l1.203125,1.07421875q0.859375,0.7734375,1.71875,0.34375t1.546875-1.568359375t1.267578125-2.814453125t1.03125-3.4375t0.666015625-3.4375t0.21484375-2.79296875l0-1.4609375t-0.12890625-1.546875t-0.451171875-1.224609375t-1.009765625-0.623046875q-0.21484375-0.04296875-0.38671875-0.04296875q-1.4609375,0-2.4921875,1.84765625q-1.1171875,2.0625-1.8046875,5.005859375t-0.98828125,6.037109375t-0.38671875,4.640625z M230.0775390625,128.1875l0-1.24609375q0-1.546875,0.0859375-2.921875q0.0859375-1.93359375,0.0859375-3.1796875q0-0.6875,0.0859375-1.568359375t0.4296875-1.396484375q0.4296875-0.4296875,1.009765625-0.880859375t1.267578125-0.451171875q2.19140625,0,3.4375,0.494140625t1.33203125,2.041015625l0.171875,1.33203125q0.7734375-1.84765625,2.0625-4.576171875t2.986328125-5.19921875t3.82421875-4.2109375t4.490234375-1.740234375q2.19140625,0,3.609375,2.0625t2.255859375,5.263671875t1.181640625,7.1328125t0.47265625,7.712890625t0.171875,6.896484375t0.30078125,4.705078125q0.171875,1.33203125,0.580078125,2.814453125t0.408203125,2.728515625q0,0.34375-0.494140625,0.666015625t-1.052734375,0.537109375t-1.138671875,0.34375t-0.837890625,0.12890625q-1.67578125,0-2.384765625-2.513671875t-0.880859375-6.294921875t-0.171875-8.185546875t-0.30078125-8.185546875t-1.224609375-6.294921875t-2.943359375-2.599609375q-1.84765625,0-3.82421875,2.384765625t-3.39453125,6.337890625q-1.375,3.953125-1.890625,8.98046875q-0.171875,1.58984375-0.171875,3.1796875q0,3.48046875,0.73046875,6.9609375q0.0859375,0.6015625-0.494140625,0.90234375t-1.439453125,0.47265625t-1.740234375,0.21484375t-1.353515625,0.04296875q-1.67578125,0-2.685546875-1.181640625t-1.568359375-3.029296875t-0.751953125-4.146484375t-0.236328125-4.533203125z M269.121953125,127.45703125q0-3.3515625,0.708984375-6.080078125t2.255859375-4.619140625t4.060546875-2.943359375t6.123046875-1.052734375q2.01953125,0,4.125,0.537109375t3.609375,1.998046875q0-0.859375,0.171875-3.544921875t0.4296875-6.251953125t0.537109375-7.4765625t0.494140625-7.26171875t0.38671875-5.62890625t0.2578125-2.578125q0.4296875-1.24609375,1.58984375-1.482421875t2.19140625-0.236328125q2.70703125,0,3.330078125,0.859375t0.623046875,3.4375q0,9.41015625-0.837890625,18.734375t-0.837890625,18.734375q0,6.05859375,0.236328125,12.181640625t1.697265625,12.052734375l0.47265625,0.4296875l0.2578125,0.7734375l-0.64453125,0.98828125q-1.6328125,1.03125-3.78125,1.03125l-0.171875,0q-2.19140625,0-4.0390625-1.03125q-0.6875-0.4296875-1.138671875-2.556640625t-0.708984375-4.68359375t-0.38671875-4.919921875t-0.21484375-3.3515625q-1.50390625,3.4375-4.103515625,5.908203125t-6.552734375,2.470703125q-3.09375,0-5.0703125-1.33203125t-3.072265625-3.39453125t-1.546875-4.619140625t-0.451171875-5.091796875z M274.321171875,127.71484375q0,0.98828125,0.236328125,2.921875t0.751953125,3.8671875t1.439453125,3.4375t2.427734375,1.50390625q2.01953125-0.98828125,3.65234375-3.287109375t2.814453125-5.0703125t1.84765625-5.54296875t0.666015625-4.791015625q0-2.53515625-1.84765625-4.2109375t-4.42578125-1.67578125q-0.7734375,0-1.568359375,0.30078125t-1.482421875,0.6875q-1.58984375,1.50390625-2.470703125,2.728515625t-1.33203125,2.53515625t-0.580078125,2.900390625t-0.12890625,3.6953125z M309.7991796875,127.97265625q0-2.921875,0.794921875-5.62890625t2.384765625-4.833984375t3.974609375-3.39453125t5.521484375-1.267578125q1.93359375,0,4.275390625,0.580078125t4.404296875,1.71875t3.4375,2.900390625t1.375,4.0390625q0,1.07421875-0.365234375,1.6328125t-1.482421875,0.55859375l-0.47265625-0.0859375q1.24609375,3.3515625,2.1484375,6.875t1.76171875,7.046875q0.34375,0.6875,0.515625,1.224609375t0.171875,1.052734375q0,0.6875-0.38671875,1.138671875t-1.009765625,0.666015625t-1.2890625,0.30078125t-1.181640625,0.0859375q-1.84765625,0-2.771484375-0.64453125t-1.33203125-1.76171875t-0.494140625-2.513671875t-0.34375-2.814453125q-0.515625,1.67578125-1.353515625,3.265625t-1.9765625,2.857421875t-2.685546875,2.01953125t-3.48046875,0.751953125q-2.8359375,0-4.76953125-1.6328125t-3.115234375-4.017578125t-1.71875-5.091796875t-0.537109375-5.02734375z M315.9007421875,127.37109375q0,1.58984375,0.21484375,3.3515625t0.708984375,3.48046875t1.267578125,3.244140625t1.93359375,2.685546875q2.10546875-2.27734375,3.115234375-5.54296875t1.8046875-6.294921875t1.8046875-5.19921875t3.115234375-2.169921875q1.33203125,0,2.234375,0.47265625q-0.4296875-1.07421875-1.41796875-2.083984375t-2.212890625-1.84765625t-2.53515625-1.375t-2.470703125-0.537109375q-0.34375,0-0.794921875,0.107421875t-0.708984375,0.021484375q-1.76171875,0.515625-2.900390625,1.783203125t-1.84765625,2.986328125t-1.009765625,3.5234375t-0.30078125,3.39453125z"/><path fill="#" d=""/></svg>
